# xmcd
#
# Track frame offsets: 
#        150
#        20088
#        31566
#        46607
#        69848
#        89226
#        110835
#        147191
#        164305
#        188492
#
# Disc length: 2843 seconds
#
# Revision: 0
# Processed by: cddbd v1.5.2PL0 Copyright (c) Steve Scherf et al.
# Submitted via: ExactAudioCopy v0.95a4
#
DISCID=7c0b190a
DTITLE=Klaus Marquardt's Violin Experience - Aliena
DYEAR=2008
DGENRE=Blues
TTITLE0=Love sneakin' up on you
TTITLE1=The Minds Eye
TTITLE2=Man of many words
TTITLE3=Aliena
TTITLE4=Brutalized
TTITLE5=How are you gonna deal with it
TTITLE6=Afro Celt
TTITLE7=Merlin's Blues
TTITLE8=Can't let her go
TTITLE9=Brutalized (extended version)
EXTD=Year: 2008\n\n\n\n\n\n                                           
EXTD=             www.bluesviolin.de
EXTT0=
EXTT1=
EXTT2=
EXTT3=
EXTT4=
EXTT5=
EXTT6=
EXTT7=
EXTT8=
EXTT9=
PLAYORDER=
